<?xml version="1.0" encoding="UTF-8"?>
<!DOCTYPE svg PUBLIC "-//W3C//DTD SVG 1.1//EN" "http://www.w3.org/Graphics/SVG/1.1/DTD/svg11.dtd">
<!-- Creator: CorelDRAW X7 -->
<svg xmlns="http://www.w3.org/2000/svg" xml:space="preserve" width="7.5in" height="7.5in" version="1.1" style="shape-rendering:geometricPrecision; text-rendering:geometricPrecision; image-rendering:optimizeQuality; fill-rule:evenodd; clip-rule:evenodd"
viewBox="0 0 7500 7500"
 xmlns:xlink="http://www.w3.org/1999/xlink">
 <defs>
  <style type="text/css">
   <![CDATA[
    .str1 {stroke:white;stroke-width:416.665}
    .str0 {stroke:#003569;stroke-width:1041.67}
    .fil0 {fill:none}
    .fil1 {fill:#006AD2}
    .fil2 {fill:white}
   ]]>
  </style>
 </defs>
 <g id="Layer_x0020_1">
  <metadata id="CorelCorpID_0Corel-Layer"/>
  <rect class="fil0" width="7500" height="7500"/>
  <g id="_2419919283216">
   <circle class="fil1 str0" cx="3750" cy="3750" r="3100"/>
   <g>
    <path class="fil2" d="M4390 2643l82 -761 -294 -31 -79 737 -237 -44 80 -736 -294 -32 -77 713c-501,-91 -949,-170 -949,-170l-399 453c0,0 1613,254 1934,321 322,68 551,483 310,887 -241,404 -665,783 -1441,731l741 -1467 -699 -130 -944 1784c0,0 368,110 968,122l-73 673 294 31 76 -707c79,-3 159,-8 241,-14l-82 763 294 32 89 -831c930,-171 1403,-1015 1432,-1413 32,-408 -314,-776 -973,-911l0 0zm0 0l0 0 0 0z"/>
   </g>
   <circle class="fil0 str1" cx="3765" cy="3750" r="2945"/>
  </g>
 </g>
</svg>
